<?xml version="1.0" standalone="no"?>
<!DOCTYPE svg PUBLIC "-//W3C//DTD SVG 20010904//EN"
 "http://www.w3.org/TR/2001/REC-SVG-20010904/DTD/svg10.dtd">
<svg version="1.0" xmlns="http://www.w3.org/2000/svg"
 width="260.000000pt" height="260.000000pt" viewBox="0 0 260.000000 260.000000"
 preserveAspectRatio="xMidYMid meet">
<metadata>
Created by potrace 1.11, written by Peter Selinger 2001-2013
</metadata>
<g transform="translate(0.000000,260.000000) scale(0.100000,-0.100000)"
fill="#000000" stroke="none">
<path d="M1270 1803 c-21 -8 -70 -55 -70 -68 0 -5 -9 -27 -20 -48 -11 -20 -20
-45 -20 -54 0 -10 -9 -31 -20 -48 -11 -16 -20 -39 -20 -50 0 -11 -9 -38 -20
-60 -11 -22 -20 -49 -20 -60 0 -11 -9 -40 -20 -64 -11 -24 -20 -55 -20 -70 0
-15 -7 -52 -16 -82 -45 -150 12 -298 144 -375 40 -24 56 -27 138 -27 78 0 98
4 131 23 61 37 103 81 134 142 24 48 29 69 29 132 0 46 -8 98 -20 138 -11 34
-20 72 -20 83 0 11 -8 42 -19 70 -10 27 -24 66 -31 85 -6 19 -17 49 -22 65
-18 52 -50 128 -80 192 -22 48 -35 64 -60 72 -33 12 -54 13 -78 4z"/>
</g>
</svg>
